#N canvas 0 89 450 300 10;
#X obj 155 40 inlet~;
#X obj 47 64 mtof;
#X obj 48 97 t b f;
#X obj 45 157 /;
#X msg 47 125 1000;
#X floatatom 46 183 5 0 0 0 - - -, f 5;
#X floatatom 48 33 5 0 0 0 - - -, f 5;
#X obj 155 73 delwrite~ \$0-comb 10;
#X obj 155 150 delread4~ \$0-comb 10;
#X obj 154 242 outlet~;
#X obj 43 7 inlet;
#X obj 106 39 inlet;
#X obj 187 206 *~ 0.9;
#X connect 0 0 7 0;
#X connect 1 0 2 0;
#X connect 2 0 4 0;
#X connect 2 1 3 1;
#X connect 3 0 5 0;
#X connect 4 0 3 0;
#X connect 5 0 8 0;
#X connect 6 0 1 0;
#X connect 8 0 9 0;
#X connect 8 0 12 0;
#X connect 10 0 6 0;
#X connect 11 0 12 1;
#X connect 12 0 7 0;
