#N canvas 1 62 450 300 10;
#X obj 117 82 mtof;
#X obj 118 110 phasor~;
#X obj 119 138 *~ 2;
#X obj 119 163 -~ 1;
#X obj 120 197 throw~ harmony-synth;
#X obj 116 14 r harmony-synth-\$1;
#X obj 115 47 + 12;
#X connect 0 0 1 0;
#X connect 1 0 2 0;
#X connect 2 0 3 0;
#X connect 3 0 4 0;
#X connect 5 0 6 0;
#X connect 6 0 0 0;
