#N canvas 192 89 794 579 10;
#N canvas 107 234 573 394 reverb 0;
#X obj 91 30 inlet~;
#X obj 91 251 outlet~;
#X obj 159 253 outlet~;
#X obj 212 31 inlet;
#X obj 86 117 e_platereverb~;
#N canvas 1 62 450 300 xfade 0;
#X obj 103 102 inlet~;
#X obj 169 102 inlet~;
#X obj 100 258 outlet~;
#X obj 388 96 inlet;
#X obj 364 151 * 1.5708;
#X obj 293 191 expr cos($f1) \; sin($f1);
#X obj 225 143 line~;
#X msg 234 118 \$1 50;
#X obj 170 188 *~;
#X obj 101 187 *~;
#X obj 124 156 line~;
#X msg 133 131 \$1 50;
#X connect 0 0 9 0;
#X connect 1 0 8 0;
#X connect 3 0 4 0;
#X connect 4 0 5 0;
#X connect 5 0 11 0;
#X connect 5 1 7 0;
#X connect 6 0 8 1;
#X connect 7 0 6 0;
#X connect 8 0 2 0;
#X connect 9 0 2 0;
#X connect 10 0 9 1;
#X connect 11 0 10 0;
#X restore 89 216 pd xfade;
#N canvas 1 89 450 300 xfade 0;
#X obj 103 102 inlet~;
#X obj 169 102 inlet~;
#X obj 100 258 outlet~;
#X obj 388 96 inlet;
#X obj 364 151 * 1.5708;
#X obj 293 191 expr cos($f1) \; sin($f1);
#X obj 225 143 line~;
#X msg 234 118 \$1 50;
#X obj 170 188 *~;
#X obj 101 187 *~;
#X obj 124 156 line~;
#X msg 133 131 \$1 50;
#X connect 0 0 9 0;
#X connect 1 0 8 0;
#X connect 3 0 4 0;
#X connect 4 0 5 0;
#X connect 5 0 11 0;
#X connect 5 1 7 0;
#X connect 6 0 8 1;
#X connect 7 0 6 0;
#X connect 8 0 2 0;
#X connect 9 0 2 0;
#X connect 10 0 9 1;
#X connect 11 0 10 0;
#X restore 156 215 pd xfade;
#X obj 288 55 loadbang;
#X msg 289 80 0;
#X obj 208 118 t f f;
#X connect 0 0 4 0;
#X connect 0 0 4 1;
#X connect 0 0 6 0;
#X connect 0 0 5 0;
#X connect 3 0 9 0;
#X connect 4 0 5 1;
#X connect 4 1 6 1;
#X connect 5 0 1 0;
#X connect 6 0 2 0;
#X connect 7 0 8 0;
#X connect 8 0 9 0;
#X connect 9 0 5 2;
#X connect 9 1 6 2;
#X restore 137 368 pd reverb;
#N canvas 336 277 633 409 play-samples 0;
#X obj 312 256 outlet~;
#X obj 275 -18 inlet;
#X obj 297 229 catch~ player;
#X msg 244 15 \; player-\$1 \$2;
#X obj 79 89 sample-player 0;
#X obj 79 112 sample-player 1;
#X obj 79 133 sample-player 2;
#X obj 79 153 sample-player 3;
#X obj 194 91 sample-player 4;
#X obj 194 114 sample-player 5;
#X obj 194 135 sample-player 6;
#X obj 194 155 sample-player 7;
#X obj 307 90 sample-player 8;
#X obj 307 113 sample-player 9;
#X obj 307 134 sample-player 10;
#X obj 307 154 sample-player 11;
#X obj 422 92 sample-player 12;
#X obj 422 115 sample-player 13;
#X obj 422 136 sample-player 14;
#X obj 422 156 sample-player 15;
#X connect 1 0 3 0;
#X connect 2 0 0 0;
#X restore 135 274 pd play-samples;
#N canvas 620 263 328 497 turing-machine 0;
#X obj 85 235 outlet;
#N canvas 472 330 850 367 register-shift 0;
#X obj 404 133 table \$0-register 16;
#X obj 90 96 int;
#X obj 157 97 + 1;
#X obj 184 97 % 16;
#X obj 116 97 t f f;
#N canvas 581 203 589 315 show-register 0;
#X obj 349 91 until;
#X msg 349 62 16;
#X obj 368 125 int;
#X obj 459 126 + 1;
#X msg 392 92 0;
#X obj 394 126 t f f f;
#X obj 378 164 tabread \$0-register;
#X obj 382 192 pack f f f;
#X obj 511 91 f \$0;
#X obj 510 61 loadbang;
#X obj 51 101 tgl 15 0 nada \$0-tog-0 empty 17 7 0 10 -262144 -1 -1
1 1;
#X msg 386 218 \; \$3-tog-\$2 \$1;
#X obj 66 101 tgl 15 0 nada \$0-tog-1 empty 17 7 0 10 -262144 -1 -1
0 1;
#X obj 81 101 tgl 15 0 nada \$0-tog-2 empty 17 7 0 10 -262144 -1 -1
0 1;
#X obj 96 101 tgl 15 0 nada \$0-tog-3 empty 17 7 0 10 -262144 -1 -1
1 1;
#X obj 111 101 tgl 15 0 nada \$0-tog-4 empty 17 7 0 10 -262144 -1 -1
0 1;
#X obj 126 101 tgl 15 0 nada \$0-tog-5 empty 17 7 0 10 -262144 -1 -1
0 1;
#X obj 141 101 tgl 15 0 nada \$0-tog-6 empty 17 7 0 10 -262144 -1 -1
1 1;
#X obj 156 101 tgl 15 0 nada \$0-tog-7 empty 17 7 0 10 -262144 -1 -1
1 1;
#X obj 171 101 tgl 15 0 nada \$0-tog-8 empty 17 7 0 10 -262144 -1 -1
0 1;
#X obj 186 101 tgl 15 0 nada \$0-tog-9 empty 17 7 0 10 -262144 -1 -1
0 1;
#X obj 201 101 tgl 15 0 nada \$0-tog-10 empty 17 7 0 10 -262144 -1
-1 1 1;
#X obj 216 101 tgl 15 0 nada \$0-tog-11 empty 17 7 0 10 -262144 -1
-1 0 1;
#X obj 231 101 tgl 15 0 nada \$0-tog-12 empty 17 7 0 10 -262144 -1
-1 1 1;
#X obj 246 101 tgl 15 0 nada \$0-tog-13 empty 17 7 0 10 -262144 -1
-1 0 1;
#X obj 261 101 tgl 15 0 nada \$0-tog-14 empty 17 7 0 10 -262144 -1
-1 1 1;
#X obj 276 101 tgl 15 0 nada \$0-tog-15 empty 17 7 0 10 -262144 -1
-1 0 1;
#X obj 353 29 t b b;
#X obj 354 4 inlet;
#X connect 0 0 2 0;
#X connect 1 0 0 0;
#X connect 2 0 5 0;
#X connect 3 0 2 1;
#X connect 4 0 2 1;
#X connect 5 0 6 0;
#X connect 5 1 7 1;
#X connect 5 2 3 0;
#X connect 6 0 7 0;
#X connect 7 0 11 0;
#X connect 8 0 7 2;
#X connect 9 0 8 0;
#X connect 27 0 1 0;
#X connect 27 1 4 0;
#X connect 28 0 27 0;
#X coords 0 -1 1 1 242 17 2 50 100;
#X restore 344 60 pd show-register;
#N canvas 501 224 450 300 change-bit 0;
#X obj 158 166 tabread \$0-register;
#X obj 162 135 t f f;
#X obj 143 235 tabwrite \$0-register;
#X obj 158 194 == 0;
#X msg 171 81 bang;
#X obj 168 50 inlet;
#X obj 168 107 random 16;
#X obj 217 57 r \$0-sequence-length;
#X obj 217 79 + 1;
#X connect 0 0 3 0;
#X connect 1 0 0 0;
#X connect 1 1 2 1;
#X connect 3 0 2 0;
#X connect 4 0 6 0;
#X connect 5 0 4 0;
#X connect 6 0 1 0;
#X connect 7 0 8 0;
#X connect 8 0 6 1;
#X restore 690 281 pd change-bit;
#X obj 90 17 inlet;
#X obj 116 288 outlet;
#X obj 732 179 inlet;
#X obj 116 265 pack;
#N canvas 1 81 299 534 register-to-8bit 0;
#X obj 75 95 inlet;
#X msg 74 149 8;
#X obj 74 173 until;
#X obj 76 200 int;
#X obj 105 201 + 1;
#X obj 130 282 tabread \$0-register;
#X obj 132 230 +;
#X obj 131 257 % 16;
#X obj 131 307 <<;
#X obj 137 202 t f f f;
#X obj 134 336 +;
#X msg 167 311 0;
#X obj 165 336 t f f;
#X obj 165 407 f;
#X obj 74 121 t b b b b f;
#X msg 105 147 -1;
#X obj 164 432 outlet;
#X connect 0 0 14 0;
#X connect 1 0 2 0;
#X connect 2 0 3 0;
#X connect 3 0 4 0;
#X connect 4 0 9 0;
#X connect 5 0 8 0;
#X connect 6 0 7 0;
#X connect 7 0 5 0;
#X connect 8 0 10 0;
#X connect 9 0 6 0;
#X connect 9 1 8 1;
#X connect 9 2 3 1;
#X connect 10 0 12 0;
#X connect 11 0 10 1;
#X connect 12 0 13 1;
#X connect 12 1 10 1;
#X connect 13 0 16 0;
#X connect 14 0 13 0;
#X connect 14 1 1 0;
#X connect 14 2 11 0;
#X connect 14 3 15 0;
#X connect 14 4 6 1;
#X connect 15 0 3 1;
#X restore 155 212 pd register-to-8bit;
#X obj 116 120 t f f;
#X obj 618 165 inlet;
#X obj 690 254 moses 1;
#X obj 155 237 % 46;
#X obj 256 28 inlet;
#X obj 690 232 random 1000;
#X connect 1 0 4 0;
#X connect 2 0 3 0;
#X connect 3 0 1 1;
#X connect 4 0 12 0;
#X connect 4 1 2 0;
#X connect 7 0 1 0;
#X connect 7 0 5 0;
#X connect 9 0 14 1;
#X connect 10 0 8 0;
#X connect 11 0 15 0;
#X connect 12 0 10 0;
#X connect 12 1 11 0;
#X connect 13 0 17 0;
#X connect 14 0 6 0;
#X connect 15 0 10 1;
#X connect 16 0 15 1;
#X connect 17 0 14 0;
#X restore 84 193 pd register-shift;
#N canvas 1 89 450 300 euclid 0;
#X obj 49 68 inlet;
#X obj 106 131 inlet;
#X obj 49 267 select 1;
#X obj 49 299 outlet;
#X text 145 130 specify desired number of hits per bar;
#X text 88 66 <-- send an integer to find out if there should be a
hit on that beat;
#X text 48 379 Generates 'euclidean rhythms' (see cgm.cs.mcgill.ca/~godfried/publications/banff.pdf).
Ideally to be used with a [metro]-powered [f ]x[+ 1] counter attached
to the first inlet. Hits per bar \, offset and bar length can be set
by the first three arguments respectively.;
#X text 111 266 <-- bang out on each hit. (Silent on rest.);
#X obj 49 169 * \$1;
#X obj 49 235 < \$1;
#X obj 49 202 % 32;
#X connect 0 0 8 0;
#X connect 1 0 8 1;
#X connect 1 0 9 1;
#X connect 2 0 3 0;
#X connect 8 0 10 0;
#X connect 9 0 2 0;
#X connect 10 0 9 0;
#X restore 85 124 pd euclid;
#X obj 160 35 + 0.5;
#X obj 157 64 int;
#X obj 86 18 inlet;
#X obj 157 9 inlet;
#X obj 85 48 t a b;
#X obj 183 112 r snapper-variation;
#X obj 183 137 * 100;
#X obj 178 232 s density;
#X obj 182 164 int;
#X obj 281 27 inlet;
#X connect 1 0 0 0;
#X connect 2 0 1 0;
#X connect 3 0 4 0;
#X connect 4 0 2 1;
#X connect 4 0 10 0;
#X connect 5 0 7 0;
#X connect 6 0 3 0;
#X connect 7 0 2 0;
#X connect 7 1 1 2;
#X connect 8 0 9 0;
#X connect 9 0 11 0;
#X connect 11 0 1 3;
#X connect 12 0 1 1;
#X restore 135 247 pd turing-machine;
#X obj 137 431 throw~ outL;
#X obj 217 431 throw~ outR;
#X obj 379 173 master-metronome;
#X obj 379 84 loadbang;
#X msg 379 106 1;
#X obj 379 243 spigot 0;
#X obj 433 263 spigot 0;
#X obj 488 243 spigot 0;
#X obj 488 110 f;
#X obj 538 151 t a a;
#X obj 538 173 sel 1;
#X obj 538 195 del 10;
#X obj 44 185 int;
#X obj 72 185 + 1;
#X obj 135 184 t f f;
#X obj 488 88 r snapper-set-tempo;
#X obj 234 194 r snapper-density;
#X obj 344 72 r fs;
#X obj 322 139 tgl 15 0 empty empty empty 17 7 0 10 -262144 -1 -1 1
1;
#X obj 319 105 sel 1;
#N canvas 0 89 853 300 harmony 0;
#X obj 45 31 r notes;
#X obj 45 84 pack 0 0 0, f 11;
#X obj 45 110 route 1 2 3 4 5 6 7 8, f 81;
#X obj 45 135 voice;
#X obj 241 187 *~ 0.125;
#X obj 45 57 poly 8 1, f 11;
#X obj 415 17 inlet~;
#X obj 240 214 outlet~;
#X obj 617 35 r snapper-pitchiness;
#X obj 621 114 s snapper-combiness;
#X obj 105 135 voice;
#X obj 165 136 voice;
#X obj 224 141 voice;
#X obj 283 143 voice;
#X obj 343 143 voice;
#X obj 403 144 voice;
#X obj 463 144 voice;
#X obj 619 62 / 5;
#X obj 620 88 + 0.875;
#X connect 0 0 5 0;
#X connect 1 0 2 0;
#X connect 2 0 3 0;
#X connect 2 1 10 0;
#X connect 2 2 11 0;
#X connect 2 3 12 0;
#X connect 2 4 13 0;
#X connect 2 5 14 0;
#X connect 2 6 15 0;
#X connect 2 7 16 0;
#X connect 3 0 4 0;
#X connect 4 0 7 0;
#X connect 5 0 1 0;
#X connect 5 1 1 1;
#X connect 5 2 1 2;
#X connect 6 0 3 1;
#X connect 6 0 10 1;
#X connect 6 0 11 1;
#X connect 6 0 12 1;
#X connect 6 0 13 1;
#X connect 6 0 14 1;
#X connect 6 0 15 1;
#X connect 6 0 16 1;
#X connect 8 0 17 0;
#X connect 10 0 4 0;
#X connect 11 0 4 0;
#X connect 12 0 4 0;
#X connect 13 0 4 0;
#X connect 14 0 4 0;
#X connect 15 0 4 0;
#X connect 16 0 4 0;
#X connect 17 0 18 0;
#X connect 18 0 9 0;
#X restore 135 301 pd harmony;
#X obj 305 73 r aux;
#X obj 255 84 * 3;
#X obj 255 110 s led;
#X obj 538 126 r snapper-tempo-button-on;
#N canvas 207 158 578 528 echo 0;
#X obj 59 13 inlet~;
#X obj 47 207 outlet~;
#X obj 269 93 pow;
#X msg 275 65 2;
#X obj 270 115 * 125;
#X obj 356 73 sig~;
#X obj 84 51 *~;
#X obj 148 134 line~;
#X msg 148 111 \$1 \$1;
#X obj 138 156 vd~ \$0-echo 500;
#X obj 328 147 t f f;
#X obj 329 215 /;
#X msg 150 30 clear;
#X obj 275 42 t b f f;
#X obj 83 73 delwrite~ \$0-echo 6000;
#X obj 334 112 r snapper-set-tempo;
#X obj 357 29 r snapper-feedback;
#X msg 310 181 15000;
#X obj 143 247 + 0.5;
#X obj 144 272 int;
#X obj 147 197 r snapper-echodur;
#X obj 78 325 s echodur-text;
#X obj 144 221 * 5;
#X connect 0 0 1 0;
#X connect 0 0 6 0;
#X connect 2 0 4 0;
#X connect 3 0 2 0;
#X connect 4 0 8 0;
#X connect 5 0 6 1;
#X connect 6 0 14 0;
#X connect 7 0 9 0;
#X connect 8 0 7 0;
#X connect 9 0 1 0;
#X connect 9 0 6 0;
#X connect 10 0 17 0;
#X connect 10 1 11 1;
#X connect 11 0 4 1;
#X connect 12 0 14 0;
#X connect 13 0 3 0;
#X connect 13 1 2 1;
#X connect 13 2 12 0;
#X connect 15 0 10 0;
#X connect 16 0 5 0;
#X connect 17 0 11 0;
#X connect 18 0 19 0;
#X connect 19 0 13 0;
#X connect 19 0 21 0;
#X connect 20 0 22 0;
#X connect 22 0 18 0;
#X restore 136 337 pd echo;
#X obj 193 342 r snapper-reverb;
#N canvas 0 89 761 476 controls 0;
#X obj 284 24 r encbut;
#X obj 284 75 tgl 15 0 empty empty empty 17 7 0 10 -262144 -1 -1 1
1;
#X obj 31 20 r knob1;
#X obj 31 69 r knob2;
#X obj 31 121 r knob3;
#X obj 31 170 r knob4;
#X obj 29 194 list prepend 4;
#X obj 193 191 route 0 1;
#X text 262 193 page;
#X obj 67 244 route 1 2 3 4;
#X obj 292 244 route 1 2 3 4;
#X obj 41 279 s snapper-density;
#N canvas 0 89 722 570 display 0;
#X obj 29 47 r density;
#X obj 34 179 * 100;
#X obj 34 207 int;
#X obj 34 153 r snapper-variation;
#X obj 30 74 int;
#X obj 36 352 * 100;
#X obj 36 380 int;
#X obj 36 326 r snapper-feedback;
#N canvas 0 89 454 361 echodur-text 0;
#X obj 137 77 sel 0 1 2 3 4 5 6 7;
#X msg 135 106 sixteenth;
#X msg 155 129 eighth;
#X msg 172 153 quarter;
#X msg 187 181 half;
#X msg 228 132 2 bars;
#X msg 233 154 4 bars;
#X msg 244 181 8 bars;
#X msg 207 105 1 bar;
#X obj 131 293 list trim;
#X obj 135 23 r echodur-text;
#X obj 136 50 int;
#X obj 74 16 inlet;
#X obj 131 317 s screenLine3;
#X obj 131 269 list prepend 3: Echo dur:;
#X connect 0 0 1 0;
#X connect 0 1 2 0;
#X connect 0 2 3 0;
#X connect 0 3 4 0;
#X connect 0 4 8 0;
#X connect 0 5 5 0;
#X connect 0 6 6 0;
#X connect 0 7 7 0;
#X connect 1 0 14 0;
#X connect 2 0 14 0;
#X connect 3 0 14 0;
#X connect 4 0 14 0;
#X connect 5 0 14 0;
#X connect 6 0 14 0;
#X connect 7 0 14 0;
#X connect 8 0 14 0;
#X connect 9 0 13 0;
#X connect 10 0 11 0;
#X connect 11 0 0 0;
#X connect 12 0 11 0;
#X connect 14 0 9 0;
#X restore 34 282 pd echodur-text;
#X obj 466 138 * 100;
#X obj 466 166 int;
#X obj 468 272 * 100;
#X obj 468 300 int;
#X obj 468 246 r snapper-reverb;
#X obj 285 18 inlet;
#X obj 281 45 sel 0 1;
#X obj 466 112 r snapper-pitchiness;
#X msg 29 98 \; screenLine1 1: Density: \$1;
#X msg 34 234 \; screenLine2 2: Variation: \$1;
#X msg 36 407 \; screenLine4 4: Feedback: \$1;
#X msg 466 193 \; screenLine2 2: Pitchiness: \$1;
#X msg 468 327 \; screenLine3 3: Reverb: \$1;
#X connect 0 0 4 0;
#X connect 1 0 2 0;
#X connect 2 0 18 0;
#X connect 3 0 1 0;
#X connect 4 0 17 0;
#X connect 5 0 6 0;
#X connect 6 0 19 0;
#X connect 7 0 5 0;
#X connect 9 0 10 0;
#X connect 10 0 20 0;
#X connect 11 0 12 0;
#X connect 12 0 21 0;
#X connect 13 0 11 0;
#X connect 14 0 15 0;
#X connect 15 0 2 0;
#X connect 15 0 8 0;
#X connect 15 0 6 0;
#X connect 15 0 4 0;
#X connect 15 1 10 0;
#X connect 15 1 12 0;
#X connect 15 1 6 0;
#X connect 16 0 9 0;
#X restore 278 412 pd display;
#X obj 76 307 s snapper-variation;
#X obj 122 361 s snapper-feedback;
#X obj 99 334 s snapper-echodur;
#X obj 286 274 s snapper-tempo;
#X obj 368 59 send enableSubMenu;
#X obj 368 26 loadbang;
#X obj 369 84 r enc;
#X msg 369 111 bang;
#X obj 369 134 s goHome;
#X obj 323 329 s snapper-reverb;
#X obj 258 380 unpack;
#X obj 319 163 s snapper-tempo-button-on;
#X obj 284 50 sel 1;
#X msg 203 37 0;
#X obj 203 12 loadbang;
#X obj 249 103 t f f;
#X obj 29 44 list prepend 1;
#X obj 29 93 list prepend 2;
#X obj 195 157 list prepend 0;
#X obj 29 145 list prepend 3;
#X obj 301 301 s snapper-pitchiness;
#X msg 462 274 \; snapper-pitchiness 0.5 \; snapper-reverb 0 \; snapper-echodur
0.5 \; snapper-feedback 0;
#X obj 462 237 loadbang;
#X connect 0 0 25 0;
#X connect 1 0 24 0;
#X connect 1 0 28 0;
#X connect 2 0 29 0;
#X connect 3 0 30 0;
#X connect 4 0 32 0;
#X connect 5 0 6 0;
#X connect 6 0 31 0;
#X connect 7 0 9 0;
#X connect 7 1 10 0;
#X connect 9 0 11 0;
#X connect 9 1 13 0;
#X connect 9 2 15 0;
#X connect 9 3 14 0;
#X connect 10 0 16 0;
#X connect 10 1 33 0;
#X connect 10 2 22 0;
#X connect 10 3 14 0;
#X connect 18 0 17 0;
#X connect 19 0 20 0;
#X connect 20 0 21 0;
#X connect 23 0 12 0;
#X connect 25 0 1 0;
#X connect 26 0 1 0;
#X connect 27 0 26 0;
#X connect 28 0 12 0;
#X connect 28 1 31 1;
#X connect 29 0 31 0;
#X connect 30 0 31 0;
#X connect 31 0 7 0;
#X connect 31 0 23 0;
#X connect 32 0 31 0;
#X connect 35 0 34 0;
#X restore 93 97 pd controls;
#X obj 623 212 * 212;
#X obj 621 242 + 48;
#X obj 623 271 int;
#X obj 624 296 s snapper-set-tempo;
#X msg 692 230 132;
#X obj 693 200 loadbang;
#X obj 624 174 r snapper-tempo;
#X msg 364 437 \; screenLine5 Click for more options;
#X msg 379 300 \; screenLine1 1: \$1 bpm MIDI;
#X msg 433 338 \; screenLine1 1: \$1 bpm;
#X msg 488 381 \; screenLine1 1: \$1 bpm LINK;
#X obj 275 243 loadbang;
#X text 267 291 audio files;
#X obj 46 154 r sixteenths;
#X obj 101 185 % 32;
#X obj 234 220 * 32;
#X floatatom 203 168 5 0 0 0 - - -, f 5;
#X msg 274 272 80;
#X connect 0 0 3 0;
#X connect 0 1 4 0;
#X connect 1 0 23 0;
#X connect 2 0 1 0;
#X connect 5 0 8 0;
#X connect 5 1 9 0;
#X connect 5 2 10 0;
#X connect 6 0 7 0;
#X connect 7 0 21 0;
#X connect 7 0 38 0;
#X connect 8 0 39 0;
#X connect 9 0 40 0;
#X connect 10 0 41 0;
#X connect 11 0 5 1;
#X connect 12 0 13 0;
#X connect 12 1 10 1;
#X connect 12 1 9 1;
#X connect 12 1 8 1;
#X connect 13 0 14 0;
#X connect 14 0 11 0;
#X connect 15 0 16 0;
#X connect 16 0 45 0;
#X connect 17 0 2 0;
#X connect 17 1 15 1;
#X connect 18 0 11 0;
#X connect 19 0 46 0;
#X connect 20 0 22 0;
#X connect 21 0 5 0;
#X connect 21 0 25 0;
#X connect 22 0 21 0;
#X connect 23 0 28 0;
#X connect 24 0 22 0;
#X connect 25 0 26 0;
#X connect 27 0 12 0;
#X connect 28 0 0 0;
#X connect 29 0 0 1;
#X connect 31 0 32 0;
#X connect 32 0 33 0;
#X connect 33 0 34 0;
#X connect 35 0 33 0;
#X connect 36 0 35 0;
#X connect 37 0 31 0;
#X connect 42 0 48 0;
#X connect 44 0 15 0;
#X connect 45 0 17 0;
#X connect 46 0 2 1;
#X connect 47 0 2 1;
#X connect 48 0 2 2;
