#N canvas 158 89 318 489 10;
#X text 85 39 note messages;
#X obj 37 92 unpack;
#X obj 37 40 inlet;
#X obj 181 77 inlet~;
#X obj 35 163 mtof;
#X obj 36 196 t b f;
#X obj 33 256 /;
#X msg 35 224 1000;
#X obj 131 403 delwrite~ \$0-comb 10;
#X obj 75 401 outlet~;
#X obj 108 365 *~ 0;
#X obj 77 116 / 100;
#X obj 78 169 * 0.95;
#X obj 76 309 vd~ \$0-comb 10;
#X obj 126 115 r snapper-combiness;
#X obj 79 143 f;
#X obj 127 143 t b f;
#X obj 35 123 - 36;
#X connect 1 0 17 0;
#X connect 1 1 11 0;
#X connect 2 0 1 0;
#X connect 3 0 8 0;
#X connect 4 0 5 0;
#X connect 5 0 7 0;
#X connect 5 1 6 1;
#X connect 6 0 13 0;
#X connect 7 0 6 0;
#X connect 10 0 8 0;
#X connect 11 0 15 0;
#X connect 12 0 10 1;
#X connect 13 0 9 0;
#X connect 13 0 10 0;
#X connect 14 0 16 0;
#X connect 15 0 12 0;
#X connect 16 0 15 0;
#X connect 16 1 12 1;
#X connect 17 0 4 0;
